<?xml version="1.0" encoding="UTF-8" standalone="no"?>
<!DOCTYPE svg PUBLIC "-//W3C//DTD SVG 1.1//EN"
 "http://www.w3.org/Graphics/SVG/1.1/DTD/svg11.dtd">
<!-- Generated by graphviz version 14.0.5 (20251129.0259)
 -->
<!-- Title: InstrumentedClassNDEBUG::getValue Pages: 1 -->
<svg width="400pt" height="42pt"
 viewBox="0.00 0.00 400.00 42.00" xmlns="http://www.w3.org/2000/svg" xmlns:xlink="http://www.w3.org/1999/xlink">
<g id="graph0" class="graph" transform="scale(1 1) rotate(0) translate(4 37.5)">
<title>InstrumentedClassNDEBUG::getValue</title>
<!-- Node1 -->
<g id="Node000001" class="node">
<title>Node1</title>
<g id="a_Node000001"><a xlink:title=" ">
<polygon fill="#999999" stroke="#666666" points="391.5,-33.5 241.25,-33.5 241.25,0 391.5,0 391.5,-33.5"/>
<text xml:space="preserve" text-anchor="start" x="249.25" y="-20" font-family="Helvetica,sans-Serif" font-size="10.00">InstrumentedClassNDEBUG</text>
<text xml:space="preserve" text-anchor="middle" x="316.38" y="-7.25" font-family="Helvetica,sans-Serif" font-size="10.00">::getValue</text>
</a>
</g>
</g>
<!-- Node2 -->
<g id="Node000002" class="node">
<title>Node2</title>
<g id="a_Node000002"><a xlink:href="test__debug__ndebug__cpp23_8cpp.html#aa8bd18593d35cc10789a7f0ca6899d7c" target="_top" xlink:title=" ">
<polygon fill="white" stroke="#666666" points="205.25,-27.12 76.75,-27.12 76.75,-6.38 205.25,-6.38 205.25,-27.12"/>
<text xml:space="preserve" text-anchor="middle" x="141" y="-13.62" font-family="Helvetica,sans-Serif" font-size="10.00">test_cpp_class_ndebug</text>
</a>
</g>
</g>
<!-- Node1&#45;&gt;Node2 -->
<g id="edge1_Node000001_Node000002" class="edge">
<title>Node1&#45;&gt;Node2</title>
<g id="a_edge1_Node000001_Node000002"><a xlink:title=" ">
<path fill="none" stroke="#63b8ff" d="M229.49,-16.75C221.43,-16.75 213.37,-16.75 205.57,-16.75"/>
<polygon fill="#63b8ff" stroke="#63b8ff" points="229.33,-20.25 239.33,-16.75 229.33,-13.25 229.33,-20.25"/>
</a>
</g>
</g>
<!-- Node3 -->
<g id="Node000003" class="node">
<title>Node3</title>
<g id="a_Node000003"><a xlink:href="test__debug__ndebug__cpp23_8cpp.html#ae66f6b31b5ad750f1fe042a706a4e3d4" target="_top" xlink:title=" ">
<polygon fill="white" stroke="#666666" points="40.75,-27.12 0,-27.12 0,-6.38 40.75,-6.38 40.75,-27.12"/>
<text xml:space="preserve" text-anchor="middle" x="20.38" y="-13.62" font-family="Helvetica,sans-Serif" font-size="10.00">main</text>
</a>
</g>
</g>
<!-- Node2&#45;&gt;Node3 -->
<g id="edge2_Node000002_Node000003" class="edge">
<title>Node2&#45;&gt;Node3</title>
<g id="a_edge2_Node000002_Node000003"><a xlink:title=" ">
<path fill="none" stroke="#63b8ff" d="M65.17,-16.75C56.37,-16.75 48.06,-16.75 41.09,-16.75"/>
<polygon fill="#63b8ff" stroke="#63b8ff" points="65.01,-20.25 75.01,-16.75 65.01,-13.25 65.01,-20.25"/>
</a>
</g>
</g>
</g>
</svg>
