<?xml version="1.0" encoding="UTF-8" standalone="no"?>
<!DOCTYPE svg PUBLIC "-//W3C//DTD SVG 1.1//EN"
 "http://www.w3.org/Graphics/SVG/1.1/DTD/svg11.dtd">
<!-- Generated by graphviz version 14.0.5 (20251129.0259)
 -->
<!-- Title: DebuggedClass Pages: 1 -->
<svg width="120pt" height="113pt"
 viewBox="0.00 0.00 120.00 113.00" xmlns="http://www.w3.org/2000/svg" xmlns:xlink="http://www.w3.org/1999/xlink">
<g id="graph0" class="graph" transform="scale(1 1) rotate(0) translate(4 108.5)">
<title>DebuggedClass</title>
<!-- Node1 -->
<g id="Node000001" class="node">
<title>Node1</title>
<g id="a_Node000001"><a xlink:title=" ">
<polygon fill="#999999" stroke="none" points="111.75,-104.5 0,-104.5 0,0 111.75,0 111.75,-104.5"/>
<text xml:space="preserve" text-anchor="start" x="18" y="-91" font-family="Helvetica,sans-Serif" font-size="10.00">DebuggedClass</text>
<text xml:space="preserve" text-anchor="start" x="6.25" y="-74.25" font-family="Helvetica,sans-Serif" font-size="10.00">&#45;</text>
<text xml:space="preserve" text-anchor="start" x="16.25" y="-74.25" font-family="Helvetica,sans-Serif" font-size="10.00">value_</text>
<text xml:space="preserve" text-anchor="start" x="4" y="-57.5" font-family="Helvetica,sans-Serif" font-size="10.00">+</text>
<text xml:space="preserve" text-anchor="start" x="16.25" y="-57.5" font-family="Helvetica,sans-Serif" font-size="10.00">DebuggedClass()</text>
<text xml:space="preserve" text-anchor="start" x="4" y="-40.75" font-family="Helvetica,sans-Serif" font-size="10.00">+</text>
<text xml:space="preserve" text-anchor="start" x="16.25" y="-40.75" font-family="Helvetica,sans-Serif" font-size="10.00">~DebuggedClass()</text>
<text xml:space="preserve" text-anchor="start" x="4" y="-24" font-family="Helvetica,sans-Serif" font-size="10.00">+</text>
<text xml:space="preserve" text-anchor="start" x="16.25" y="-24" font-family="Helvetica,sans-Serif" font-size="10.00">getValue()</text>
<text xml:space="preserve" text-anchor="start" x="4" y="-7.25" font-family="Helvetica,sans-Serif" font-size="10.00">+</text>
<text xml:space="preserve" text-anchor="start" x="16.25" y="-7.25" font-family="Helvetica,sans-Serif" font-size="10.00">setValue()</text>
<polygon fill="#666666" stroke="#666666" points="0,-85.75 0,-85.75 111.75,-85.75 111.75,-85.75 0,-85.75"/>
<polygon fill="#666666" stroke="#666666" points="0,-69 0,-69 14.25,-69 14.25,-69 0,-69"/>
<polygon fill="#666666" stroke="#666666" points="14.25,-69 14.25,-69 111.75,-69 111.75,-69 14.25,-69"/>
<polygon fill="none" stroke="#666666" points="0,0 0,-104.5 111.75,-104.5 111.75,0 0,0"/>
</a>
</g>
</g>
</g>
</svg>
