<?xml version="1.0" encoding="UTF-8" standalone="no"?>
<!DOCTYPE svg PUBLIC "-//W3C//DTD SVG 1.1//EN"
 "http://www.w3.org/Graphics/SVG/1.1/DTD/svg11.dtd">
<!-- Generated by graphviz version 14.0.5 (20251129.0259)
 -->
<!-- Title: test_integration_cpp Pages: 1 -->
<svg width="299pt" height="68pt"
 viewBox="0.00 0.00 299.00 68.00" xmlns="http://www.w3.org/2000/svg" xmlns:xlink="http://www.w3.org/1999/xlink">
<g id="graph0" class="graph" transform="scale(1 1) rotate(0) translate(4 63.75)">
<title>test_integration_cpp</title>
<!-- Node1 -->
<g id="Node000001" class="node">
<title>Node1</title>
<g id="a_Node000001"><a xlink:title=" ">
<polygon fill="#999999" stroke="#666666" points="115.75,-39.75 0,-39.75 0,-19 115.75,-19 115.75,-39.75"/>
<text xml:space="preserve" text-anchor="middle" x="57.88" y="-26.25" font-family="Helvetica,sans-Serif" font-size="10.00">test_integration_cpp</text>
</a>
</g>
</g>
<!-- Node2 -->
<g id="Node000002" class="node">
<title>Node2</title>
<g id="a_Node000002"><a xlink:href="classDataProcessor.html#a8226b8294438db06d47fdc6bbf0425dc" target="_top" xlink:title=" ">
<polygon fill="white" stroke="#666666" points="290.75,-59.75 151.75,-59.75 151.75,-39 290.75,-39 290.75,-59.75"/>
<text xml:space="preserve" text-anchor="middle" x="221.25" y="-46.25" font-family="Helvetica,sans-Serif" font-size="10.00">DataProcessor::getResult</text>
</a>
</g>
</g>
<!-- Node1&#45;&gt;Node2 -->
<g id="edge1_Node000001_Node000002" class="edge">
<title>Node1&#45;&gt;Node2</title>
<g id="a_edge1_Node000001_Node000002"><a xlink:title=" ">
<path fill="none" stroke="#63b8ff" d="M116.22,-36.48C123.98,-37.44 132.06,-38.44 140.12,-39.44"/>
<polygon fill="#63b8ff" stroke="#63b8ff" points="139.63,-42.91 149.98,-40.67 140.49,-35.96 139.63,-42.91"/>
</a>
</g>
</g>
<!-- Node3 -->
<g id="Node000003" class="node">
<title>Node3</title>
<g id="a_Node000003"><a xlink:href="classDataProcessor.html#a5043be47141ba8aae70addf7bf1a67b7" target="_top" xlink:title=" ">
<polygon fill="white" stroke="#666666" points="286.25,-20.75 156.25,-20.75 156.25,0 286.25,0 286.25,-20.75"/>
<text xml:space="preserve" text-anchor="middle" x="221.25" y="-7.25" font-family="Helvetica,sans-Serif" font-size="10.00">DataProcessor::process</text>
</a>
</g>
</g>
<!-- Node1&#45;&gt;Node3 -->
<g id="edge2_Node000001_Node000003" class="edge">
<title>Node1&#45;&gt;Node3</title>
<g id="a_edge2_Node000001_Node000003"><a xlink:title=" ">
<path fill="none" stroke="#63b8ff" d="M116.22,-22.62C125.47,-21.53 135.16,-20.39 144.76,-19.26"/>
<polygon fill="#63b8ff" stroke="#63b8ff" points="144.92,-22.77 154.44,-18.12 144.1,-15.82 144.92,-22.77"/>
</a>
</g>
</g>
</g>
</svg>
