<?xml version="1.0" encoding="UTF-8" standalone="no"?>
<!DOCTYPE svg PUBLIC "-//W3C//DTD SVG 1.1//EN"
 "http://www.w3.org/Graphics/SVG/1.1/DTD/svg11.dtd">
<!-- Generated by graphviz version 14.0.5 (20251129.0259)
 -->
<!-- Title: main Pages: 1 -->
<svg width="427pt" height="392pt"
 viewBox="0.00 0.00 427.00 392.00" xmlns="http://www.w3.org/2000/svg" xmlns:xlink="http://www.w3.org/1999/xlink">
<g id="graph0" class="graph" transform="scale(1 1) rotate(0) translate(4 387.75)">
<title>main</title>
<!-- Node1 -->
<g id="Node000001" class="node">
<title>Node1</title>
<g id="a_Node000001"><a xlink:title=" ">
<polygon fill="#999999" stroke="#666666" points="40.75,-204.75 0,-204.75 0,-184 40.75,-184 40.75,-204.75"/>
<text xml:space="preserve" text-anchor="middle" x="20.38" y="-191.25" font-family="Helvetica,sans-Serif" font-size="10.00">main</text>
</a>
</g>
</g>
<!-- Node2 -->
<g id="Node000002" class="node">
<title>Node2</title>
<g id="a_Node000002"><a xlink:href="test__debug__ndebug__cpp23_8cpp.html#a70286f88f0184f920d7925a0294bfff7" target="_top" xlink:title=" ">
<polygon fill="white" stroke="#666666" points="232.25,-383.75 76.75,-383.75 76.75,-363 232.25,-363 232.25,-383.75"/>
<text xml:space="preserve" text-anchor="middle" x="154.5" y="-370.25" font-family="Helvetica,sans-Serif" font-size="10.00">test_assert_check_noop_cpp</text>
</a>
</g>
</g>
<!-- Node1&#45;&gt;Node2 -->
<g id="edge1_Node000001_Node000002" class="edge">
<title>Node1&#45;&gt;Node2</title>
<g id="a_edge1_Node000001_Node000002"><a xlink:title=" ">
<path fill="none" stroke="#63b8ff" d="M21.8,-205.11C23.52,-233.71 32.28,-312.34 76.75,-353.38 78.01,-354.54 79.34,-355.64 80.71,-356.68"/>
<polygon fill="#63b8ff" stroke="#63b8ff" points="78.79,-359.61 89.14,-361.87 82.46,-353.65 78.79,-359.61"/>
</a>
</g>
</g>
<!-- Node3 -->
<g id="Node000003" class="node">
<title>Node3</title>
<g id="a_Node000003"><a xlink:href="test__debug__ndebug__cpp23_8cpp.html#ad7fb3a19edb49f92bae516f41796f97d" target="_top" xlink:title=" ">
<polygon fill="white" stroke="#666666" points="224.38,-344.75 84.62,-344.75 84.62,-324 224.38,-324 224.38,-344.75"/>
<text xml:space="preserve" text-anchor="middle" x="154.5" y="-331.25" font-family="Helvetica,sans-Serif" font-size="10.00">test_backtrace_noop_cpp</text>
</a>
</g>
</g>
<!-- Node1&#45;&gt;Node3 -->
<g id="edge2_Node000001_Node000003" class="edge">
<title>Node1&#45;&gt;Node3</title>
<g id="a_edge2_Node000001_Node000003"><a xlink:title=" ">
<path fill="none" stroke="#63b8ff" d="M23.18,-205.22C27.69,-228.82 41.73,-285.08 76.75,-314.38 78.27,-315.65 79.87,-316.85 81.53,-317.97"/>
<polygon fill="#63b8ff" stroke="#63b8ff" points="79.81,-321.02 90.25,-322.85 83.24,-314.91 79.81,-321.02"/>
</a>
</g>
</g>
<!-- Node4 -->
<g id="Node000004" class="node">
<title>Node4</title>
<g id="a_Node000004"><a xlink:href="test__debug__ndebug__cpp23_8cpp.html#ae1bb52038385591c2d583cbc1dc0b85d" target="_top" xlink:title=" ">
<polygon fill="white" stroke="#666666" points="227.38,-305.75 81.62,-305.75 81.62,-285 227.38,-285 227.38,-305.75"/>
<text xml:space="preserve" text-anchor="middle" x="154.5" y="-292.25" font-family="Helvetica,sans-Serif" font-size="10.00">test_conditional_noop_cpp</text>
</a>
</g>
</g>
<!-- Node1&#45;&gt;Node4 -->
<g id="edge3_Node000001_Node000004" class="edge">
<title>Node1&#45;&gt;Node4</title>
<g id="a_edge3_Node000001_Node000004"><a xlink:title=" ">
<path fill="none" stroke="#63b8ff" d="M25.72,-205.14C33.35,-222.65 50.84,-257.15 76.75,-275.38 78.98,-276.95 81.33,-278.39 83.76,-279.73"/>
<polygon fill="#63b8ff" stroke="#63b8ff" points="82.23,-282.88 92.77,-283.95 85.21,-276.54 82.23,-282.88"/>
</a>
</g>
</g>
<!-- Node5 -->
<g id="Node000005" class="node">
<title>Node5</title>
<g id="a_Node000005"><a xlink:href="test__debug__ndebug__cpp23_8cpp.html#aa8bd18593d35cc10789a7f0ca6899d7c" target="_top" xlink:title=" ">
<polygon fill="white" stroke="#666666" points="218.75,-266.75 90.25,-266.75 90.25,-246 218.75,-246 218.75,-266.75"/>
<text xml:space="preserve" text-anchor="middle" x="154.5" y="-253.25" font-family="Helvetica,sans-Serif" font-size="10.00">test_cpp_class_ndebug</text>
</a>
</g>
</g>
<!-- Node1&#45;&gt;Node5 -->
<g id="edge4_Node000001_Node000005" class="edge">
<title>Node1&#45;&gt;Node5</title>
<g id="a_edge4_Node000001_Node000005"><a xlink:title=" ">
<path fill="none" stroke="#63b8ff" d="M32.78,-205.2C43.39,-214.71 60.03,-228.26 76.75,-236.38 80.93,-238.4 85.34,-240.25 89.85,-241.91"/>
<polygon fill="#63b8ff" stroke="#63b8ff" points="88.46,-245.14 99.06,-245.02 90.7,-238.51 88.46,-245.14"/>
</a>
</g>
</g>
<!-- Node7 -->
<g id="Node000007" class="node">
<title>Node7</title>
<g id="a_Node000007"><a xlink:href="test__debug__ndebug__cpp23_8cpp.html#ae89bb12596822343c293088e48b82f99" target="_top" xlink:title=" ">
<polygon fill="white" stroke="#666666" points="231.88,-227.75 77.12,-227.75 77.12,-207 231.88,-207 231.88,-227.75"/>
<text xml:space="preserve" text-anchor="middle" x="154.5" y="-214.25" font-family="Helvetica,sans-Serif" font-size="10.00">test_definitions_ndebug_cpp</text>
</a>
</g>
</g>
<!-- Node1&#45;&gt;Node7 -->
<g id="edge6_Node000001_Node000007" class="edge">
<title>Node1&#45;&gt;Node7</title>
<g id="a_edge6_Node000001_Node000007"><a xlink:title=" ">
<path fill="none" stroke="#63b8ff" d="M41.16,-197.82C51.83,-199.68 65.73,-202.1 80.11,-204.6"/>
<polygon fill="#63b8ff" stroke="#63b8ff" points="79.2,-207.99 89.66,-206.26 80.41,-201.1 79.2,-207.99"/>
</a>
</g>
</g>
<!-- Node8 -->
<g id="Node000008" class="node">
<title>Node8</title>
<g id="a_Node000008"><a xlink:href="test__debug__ndebug__cpp23_8cpp.html#afe237ae653fee1cd296bb801d4f01ae9" target="_top" xlink:title=" ">
<polygon fill="white" stroke="#666666" points="213.88,-189.12 95.12,-189.12 95.12,-155.62 213.88,-155.62 213.88,-189.12"/>
<text xml:space="preserve" text-anchor="start" x="103.12" y="-175.62" font-family="Helvetica,sans-Serif" font-size="10.00">test_function_tracing</text>
<text xml:space="preserve" text-anchor="middle" x="154.5" y="-162.88" font-family="Helvetica,sans-Serif" font-size="10.00">_noop_cpp</text>
</a>
</g>
</g>
<!-- Node1&#45;&gt;Node8 -->
<g id="edge7_Node000001_Node000008" class="edge">
<title>Node1&#45;&gt;Node8</title>
<g id="a_edge7_Node000001_Node000008"><a xlink:title=" ">
<path fill="none" stroke="#63b8ff" d="M41.16,-191.08C52.63,-189.17 67.84,-186.64 83.35,-184.06"/>
<polygon fill="#63b8ff" stroke="#63b8ff" points="83.87,-187.52 93.15,-182.42 82.72,-180.61 83.87,-187.52"/>
</a>
</g>
</g>
<!-- Node10 -->
<g id="Node000010" class="node">
<title>Node10</title>
<g id="a_Node000010"><a xlink:href="test__debug__ndebug__cpp23_8cpp.html#abe35d450753298b8bc0860cf48ef96d1" target="_top" xlink:title=" ">
<polygon fill="white" stroke="#666666" points="228.5,-137.75 80.5,-137.75 80.5,-117 228.5,-117 228.5,-137.75"/>
<text xml:space="preserve" text-anchor="middle" x="154.5" y="-124.25" font-family="Helvetica,sans-Serif" font-size="10.00">test_log_macros_noop_cpp</text>
</a>
</g>
</g>
<!-- Node1&#45;&gt;Node10 -->
<g id="edge9_Node000001_Node000010" class="edge">
<title>Node1&#45;&gt;Node10</title>
<g id="a_edge9_Node000001_Node000010"><a xlink:title=" ">
<path fill="none" stroke="#63b8ff" d="M30.89,-183.55C41.14,-172.57 58.45,-155.86 76.75,-146.38 79.76,-144.81 82.9,-143.38 86.13,-142.06"/>
<polygon fill="#63b8ff" stroke="#63b8ff" points="87.02,-145.46 95.21,-138.73 84.61,-138.88 87.02,-145.46"/>
</a>
</g>
</g>
<!-- Node11 -->
<g id="Node000011" class="node">
<title>Node11</title>
<g id="a_Node000011"><a xlink:href="test__debug__ndebug__cpp23_8cpp.html#ad526b54e826f658ccf773671a5187f34" target="_top" xlink:title=" ">
<polygon fill="white" stroke="#666666" points="231.5,-98.75 77.5,-98.75 77.5,-78 231.5,-78 231.5,-98.75"/>
<text xml:space="preserve" text-anchor="middle" x="154.5" y="-85.25" font-family="Helvetica,sans-Serif" font-size="10.00">test_loop_macros_noop_cpp</text>
</a>
</g>
</g>
<!-- Node1&#45;&gt;Node11 -->
<g id="edge10_Node000001_Node000011" class="edge">
<title>Node1&#45;&gt;Node11</title>
<g id="a_edge10_Node000001_Node000011"><a xlink:title=" ">
<path fill="none" stroke="#63b8ff" d="M25.3,-183.54C32.52,-165.16 49.71,-127.96 76.75,-108.38 78.83,-106.87 81.02,-105.47 83.29,-104.18"/>
<polygon fill="#63b8ff" stroke="#63b8ff" points="84.81,-107.33 92.29,-99.83 81.76,-101.03 84.81,-107.33"/>
</a>
</g>
</g>
<!-- Node12 -->
<g id="Node000012" class="node">
<title>Node12</title>
<g id="a_Node000012"><a xlink:href="test__debug__ndebug__cpp23_8cpp.html#a01c1852611202130ff4da82279419542" target="_top" xlink:title=" ">
<polygon fill="white" stroke="#666666" points="231.5,-59.75 77.5,-59.75 77.5,-39 231.5,-39 231.5,-59.75"/>
<text xml:space="preserve" text-anchor="middle" x="154.5" y="-46.25" font-family="Helvetica,sans-Serif" font-size="10.00">test_memory_functions_cpp</text>
</a>
</g>
</g>
<!-- Node1&#45;&gt;Node12 -->
<g id="edge11_Node000001_Node000012" class="edge">
<title>Node1&#45;&gt;Node12</title>
<g id="a_edge11_Node000001_Node000012"><a xlink:title=" ">
<path fill="none" stroke="#63b8ff" d="M22.91,-183.82C26.99,-159.71 40.39,-100.27 76.75,-69.38 78.26,-68.09 79.85,-66.88 81.5,-65.75"/>
<polygon fill="#63b8ff" stroke="#63b8ff" points="83.21,-68.8 90.19,-60.83 79.77,-62.71 83.21,-68.8"/>
</a>
</g>
</g>
<!-- Node13 -->
<g id="Node000013" class="node">
<title>Node13</title>
<g id="a_Node000013"><a xlink:href="test__debug__ndebug__cpp23_8cpp.html#a036e6fe506b4e091fdd4afed11f4324e" target="_top" xlink:title=" ">
<polygon fill="white" stroke="#666666" points="217.62,-20.75 91.38,-20.75 91.38,0 217.62,0 217.62,-20.75"/>
<text xml:space="preserve" text-anchor="middle" x="154.5" y="-7.25" font-family="Helvetica,sans-Serif" font-size="10.00">test_var_ptr_noop_cpp</text>
</a>
</g>
</g>
<!-- Node1&#45;&gt;Node13 -->
<g id="edge12_Node000001_Node000013" class="edge">
<title>Node1&#45;&gt;Node13</title>
<g id="a_edge12_Node000001_Node000013"><a xlink:title=" ">
<path fill="none" stroke="#63b8ff" d="M21.66,-183.73C23.04,-154.62 31.02,-72.98 76.75,-30.38 78.2,-29.02 79.74,-27.75 81.34,-26.57"/>
<polygon fill="#63b8ff" stroke="#63b8ff" points="83.08,-29.61 89.84,-21.45 79.47,-23.61 83.08,-29.61"/>
</a>
</g>
</g>
<!-- Node6 -->
<g id="Node000006" class="node">
<title>Node6</title>
<g id="a_Node000006"><a xlink:href="classInstrumentedClassNDEBUG.html#abdb1cd8d67883ca92e6014c2526fd9f0" target="_top" xlink:title=" ">
<polygon fill="white" stroke="#666666" points="418.5,-273.12 268.25,-273.12 268.25,-239.62 418.5,-239.62 418.5,-273.12"/>
<text xml:space="preserve" text-anchor="start" x="276.25" y="-259.62" font-family="Helvetica,sans-Serif" font-size="10.00">InstrumentedClassNDEBUG</text>
<text xml:space="preserve" text-anchor="middle" x="343.38" y="-246.88" font-family="Helvetica,sans-Serif" font-size="10.00">::getValue</text>
</a>
</g>
</g>
<!-- Node5&#45;&gt;Node6 -->
<g id="edge5_Node000005_Node000006" class="edge">
<title>Node5&#45;&gt;Node6</title>
<g id="a_edge5_Node000005_Node000006"><a xlink:title=" ">
<path fill="none" stroke="#63b8ff" d="M219.03,-256.38C231.22,-256.38 244.18,-256.38 256.93,-256.38"/>
<polygon fill="#63b8ff" stroke="#63b8ff" points="256.55,-259.88 266.55,-256.38 256.55,-252.88 256.55,-259.88"/>
</a>
</g>
</g>
<!-- Node9 -->
<g id="Node000009" class="node">
<title>Node9</title>
<g id="a_Node000009"><a xlink:href="test__debug__ndebug__cpp23_8cpp.html#a4bcc0216a15bdf4375a9238c508ee86d" target="_top" xlink:title=" ">
<polygon fill="white" stroke="#666666" points="401.25,-182.75 285.5,-182.75 285.5,-162 401.25,-162 401.25,-182.75"/>
<text xml:space="preserve" text-anchor="middle" x="343.38" y="-169.25" font-family="Helvetica,sans-Serif" font-size="10.00">test_exit_return_cpp</text>
</a>
</g>
</g>
<!-- Node8&#45;&gt;Node9 -->
<g id="edge8_Node000008_Node000009" class="edge">
<title>Node8&#45;&gt;Node9</title>
<g id="a_edge8_Node000008_Node000009"><a xlink:title=" ">
<path fill="none" stroke="#63b8ff" d="M214.37,-172.38C233.24,-172.38 254.3,-172.38 273.8,-172.38"/>
<polygon fill="#63b8ff" stroke="#63b8ff" points="273.56,-175.88 283.56,-172.38 273.56,-168.88 273.56,-175.88"/>
</a>
</g>
</g>
</g>
</svg>
