<?xml version="1.0" encoding="UTF-8" standalone="no"?>
<!DOCTYPE svg PUBLIC "-//W3C//DTD SVG 1.1//EN"
 "http://www.w3.org/Graphics/SVG/1.1/DTD/svg11.dtd">
<!-- Generated by graphviz version 14.0.5 (20251129.0259)
 -->
<!-- Title: debug_template_add Pages: 1 -->
<svg width="385pt" height="29pt"
 viewBox="0.00 0.00 385.00 29.00" xmlns="http://www.w3.org/2000/svg" xmlns:xlink="http://www.w3.org/1999/xlink">
<g id="graph0" class="graph" transform="scale(1 1) rotate(0) translate(4 24.75)">
<title>debug_template_add</title>
<!-- Node1 -->
<g id="Node000001" class="node">
<title>Node1</title>
<g id="a_Node000001"><a xlink:title=" ">
<polygon fill="#999999" stroke="#666666" points="376.5,-20.75 257.75,-20.75 257.75,0 376.5,0 376.5,-20.75"/>
<text xml:space="preserve" text-anchor="middle" x="317.12" y="-7.25" font-family="Helvetica,sans-Serif" font-size="10.00">debug_template_add</text>
</a>
</g>
</g>
<!-- Node2 -->
<g id="Node000002" class="node">
<title>Node2</title>
<g id="a_Node000002"><a xlink:href="test__debug__cpp23_8cpp.html#a520b15765a9e0245a810153dc5e94861" target="_top" xlink:title=" ">
<polygon fill="white" stroke="#666666" points="221.75,-20.75 76.75,-20.75 76.75,0 221.75,0 221.75,-20.75"/>
<text xml:space="preserve" text-anchor="middle" x="149.25" y="-7.25" font-family="Helvetica,sans-Serif" font-size="10.00">test_cpp_specific_features</text>
</a>
</g>
</g>
<!-- Node1&#45;&gt;Node2 -->
<g id="edge1_Node000001_Node000002" class="edge">
<title>Node1&#45;&gt;Node2</title>
<g id="a_edge1_Node000001_Node000002"><a xlink:title=" ">
<path fill="none" stroke="#63b8ff" d="M246.16,-10.38C238.22,-10.38 230.12,-10.38 222.16,-10.38"/>
<polygon fill="#63b8ff" stroke="#63b8ff" points="246.13,-13.88 256.13,-10.38 246.13,-6.88 246.13,-13.88"/>
</a>
</g>
</g>
<!-- Node3 -->
<g id="Node000003" class="node">
<title>Node3</title>
<g id="a_Node000003"><a xlink:href="test__debug__cpp23_8cpp.html#ae66f6b31b5ad750f1fe042a706a4e3d4" target="_top" xlink:title=" ">
<polygon fill="white" stroke="#666666" points="40.75,-20.75 0,-20.75 0,0 40.75,0 40.75,-20.75"/>
<text xml:space="preserve" text-anchor="middle" x="20.38" y="-7.25" font-family="Helvetica,sans-Serif" font-size="10.00">main</text>
</a>
</g>
</g>
<!-- Node2&#45;&gt;Node3 -->
<g id="edge2_Node000002_Node000003" class="edge">
<title>Node2&#45;&gt;Node3</title>
<g id="a_edge2_Node000002_Node000003"><a xlink:title=" ">
<path fill="none" stroke="#63b8ff" d="M64.92,-10.38C56.13,-10.38 47.92,-10.38 41.04,-10.38"/>
<polygon fill="#63b8ff" stroke="#63b8ff" points="64.77,-13.88 74.77,-10.38 64.77,-6.88 64.77,-13.88"/>
</a>
</g>
</g>
</g>
</svg>
