<?xml version="1.0" encoding="UTF-8" standalone="no"?>
<!DOCTYPE svg PUBLIC "-//W3C//DTD SVG 1.1//EN"
 "http://www.w3.org/Graphics/SVG/1.1/DTD/svg11.dtd">
<!-- Generated by graphviz version 14.0.5 (20251129.0259)
 -->
<!-- Title: test_function_with_tracing Pages: 1 -->
<svg width="346pt" height="42pt"
 viewBox="0.00 0.00 346.00 42.00" xmlns="http://www.w3.org/2000/svg" xmlns:xlink="http://www.w3.org/1999/xlink">
<g id="graph0" class="graph" transform="scale(1 1) rotate(0) translate(4 37.5)">
<title>test_function_with_tracing</title>
<!-- Node1 -->
<g id="Node000001" class="node">
<title>Node1</title>
<g id="a_Node000001"><a xlink:title=" ">
<polygon fill="#999999" stroke="#666666" points="337.5,-33.5 231.5,-33.5 231.5,0 337.5,0 337.5,-33.5"/>
<text xml:space="preserve" text-anchor="start" x="239.5" y="-20" font-family="Helvetica,sans-Serif" font-size="10.00">test_function_with</text>
<text xml:space="preserve" text-anchor="middle" x="284.5" y="-7.25" font-family="Helvetica,sans-Serif" font-size="10.00">_tracing</text>
</a>
</g>
</g>
<!-- Node2 -->
<g id="Node000002" class="node">
<title>Node2</title>
<g id="a_Node000002"><a xlink:href="test__debug__c23_8c.html#a36e59b0be0bbad85d4b4b42f2188be83" target="_top" xlink:title=" ">
<polygon fill="white" stroke="#666666" points="195.5,-27.12 76.75,-27.12 76.75,-6.38 195.5,-6.38 195.5,-27.12"/>
<text xml:space="preserve" text-anchor="middle" x="136.12" y="-13.62" font-family="Helvetica,sans-Serif" font-size="10.00">test_function_tracing</text>
</a>
</g>
</g>
<!-- Node1&#45;&gt;Node2 -->
<g id="edge1_Node000001_Node000002" class="edge">
<title>Node1&#45;&gt;Node2</title>
<g id="a_edge1_Node000001_Node000002"><a xlink:title=" ">
<path fill="none" stroke="#63b8ff" d="M219.65,-16.75C211.76,-16.75 203.71,-16.75 195.9,-16.75"/>
<polygon fill="#63b8ff" stroke="#63b8ff" points="219.56,-20.25 229.56,-16.75 219.56,-13.25 219.56,-20.25"/>
</a>
</g>
</g>
<!-- Node3 -->
<g id="Node000003" class="node">
<title>Node3</title>
<g id="a_Node000003"><a xlink:href="test__debug__c23_8c.html#a840291bc02cba5474a4cb46a9b9566fe" target="_top" xlink:title=" ">
<polygon fill="white" stroke="#666666" points="40.75,-27.12 0,-27.12 0,-6.38 40.75,-6.38 40.75,-27.12"/>
<text xml:space="preserve" text-anchor="middle" x="20.38" y="-13.62" font-family="Helvetica,sans-Serif" font-size="10.00">main</text>
</a>
</g>
</g>
<!-- Node2&#45;&gt;Node3 -->
<g id="edge2_Node000002_Node000003" class="edge">
<title>Node2&#45;&gt;Node3</title>
<g id="a_edge2_Node000002_Node000003"><a xlink:title=" ">
<path fill="none" stroke="#63b8ff" d="M64.76,-16.75C56.16,-16.75 48,-16.75 41.12,-16.75"/>
<polygon fill="#63b8ff" stroke="#63b8ff" points="64.74,-20.25 74.74,-16.75 64.74,-13.25 64.74,-20.25"/>
</a>
</g>
</g>
</g>
</svg>
