<?xml version="1.0" encoding="UTF-8" standalone="no"?>
<!DOCTYPE svg PUBLIC "-//W3C//DTD SVG 1.1//EN"
 "http://www.w3.org/Graphics/SVG/1.1/DTD/svg11.dtd">
<!-- Generated by graphviz version 14.0.5 (20251129.0259)
 -->
<!-- Title: test_integration Pages: 1 -->
<svg width="241pt" height="68pt"
 viewBox="0.00 0.00 241.00 68.00" xmlns="http://www.w3.org/2000/svg" xmlns:xlink="http://www.w3.org/1999/xlink">
<g id="graph0" class="graph" transform="scale(1 1) rotate(0) translate(4 63.75)">
<title>test_integration</title>
<!-- Node1 -->
<g id="Node000001" class="node">
<title>Node1</title>
<g id="a_Node000001"><a xlink:title=" ">
<polygon fill="#999999" stroke="#666666" points="93.25,-39.75 0,-39.75 0,-19 93.25,-19 93.25,-39.75"/>
<text xml:space="preserve" text-anchor="middle" x="46.62" y="-26.25" font-family="Helvetica,sans-Serif" font-size="10.00">test_integration</text>
</a>
</g>
</g>
<!-- Node2 -->
<g id="Node000002" class="node">
<title>Node2</title>
<g id="a_Node000002"><a xlink:href="test__debug__c23_8c.html#af3151e06f0c701ba63c3205ab565fcb4" target="_top" xlink:title=" ">
<polygon fill="white" stroke="#666666" points="233,-59.75 129.25,-59.75 129.25,-39 233,-39 233,-59.75"/>
<text xml:space="preserve" text-anchor="middle" x="181.12" y="-46.25" font-family="Helvetica,sans-Serif" font-size="10.00">create_test_struct</text>
</a>
</g>
</g>
<!-- Node1&#45;&gt;Node2 -->
<g id="edge1_Node000001_Node000002" class="edge">
<title>Node1&#45;&gt;Node2</title>
<g id="a_edge1_Node000001_Node000002"><a xlink:title=" ">
<path fill="none" stroke="#63b8ff" d="M93.6,-36.31C101.32,-37.48 109.45,-38.71 117.5,-39.92"/>
<polygon fill="#63b8ff" stroke="#63b8ff" points="116.89,-43.37 127.3,-41.4 117.93,-36.45 116.89,-43.37"/>
</a>
</g>
</g>
<!-- Node3 -->
<g id="Node000003" class="node">
<title>Node3</title>
<g id="a_Node000003"><a xlink:href="test__debug__c23_8c.html#a90cc493d0a2d314a6dab34b1291719b0" target="_top" xlink:title=" ">
<polygon fill="white" stroke="#666666" points="223.25,-20.75 139,-20.75 139,0 223.25,0 223.25,-20.75"/>
<text xml:space="preserve" text-anchor="middle" x="181.12" y="-7.25" font-family="Helvetica,sans-Serif" font-size="10.00">process_array</text>
</a>
</g>
</g>
<!-- Node1&#45;&gt;Node3 -->
<g id="edge2_Node000001_Node000003" class="edge">
<title>Node1&#45;&gt;Node3</title>
<g id="a_edge2_Node000001_Node000003"><a xlink:title=" ">
<path fill="none" stroke="#63b8ff" d="M93.6,-22.78C104.47,-21.22 116.15,-19.55 127.3,-17.95"/>
<polygon fill="#63b8ff" stroke="#63b8ff" points="127.77,-21.42 137.17,-16.53 126.78,-14.49 127.77,-21.42"/>
</a>
</g>
</g>
</g>
</svg>
