<?xml version="1.0" encoding="UTF-8" standalone="no"?>
<!DOCTYPE svg PUBLIC "-//W3C//DTD SVG 1.1//EN"
 "http://www.w3.org/Graphics/SVG/1.1/DTD/svg11.dtd">
<!-- Generated by graphviz version 14.0.5 (20251129.0259)
 -->
<!-- Title: test_backtrace_cpp Pages: 1 -->
<svg width="481pt" height="80pt"
 viewBox="0.00 0.00 481.00 80.00" xmlns="http://www.w3.org/2000/svg" xmlns:xlink="http://www.w3.org/1999/xlink">
<g id="graph0" class="graph" transform="scale(1 1) rotate(0) translate(4 76.12)">
<title>test_backtrace_cpp</title>
<!-- Node1 -->
<g id="Node000001" class="node">
<title>Node1</title>
<g id="a_Node000001"><a xlink:title=" ">
<polygon fill="#999999" stroke="#666666" points="110.5,-42.75 0,-42.75 0,-22 110.5,-22 110.5,-42.75"/>
<text xml:space="preserve" text-anchor="middle" x="55.25" y="-29.25" font-family="Helvetica,sans-Serif" font-size="10.00">test_backtrace_cpp</text>
</a>
</g>
</g>
<!-- Node2 -->
<g id="Node000002" class="node">
<title>Node2</title>
<g id="a_Node000002"><a xlink:href="classBacktraceTestClass.html#a4b8ed16ea934e9048e8fe478c8a508bd" target="_top" xlink:title=" ">
<polygon fill="white" stroke="#666666" points="276.5,-72.12 166,-72.12 166,-38.62 276.5,-38.62 276.5,-72.12"/>
<text xml:space="preserve" text-anchor="start" x="174" y="-58.62" font-family="Helvetica,sans-Serif" font-size="10.00">BacktraceTestClass</text>
<text xml:space="preserve" text-anchor="middle" x="221.25" y="-45.88" font-family="Helvetica,sans-Serif" font-size="10.00">::method</text>
</a>
</g>
</g>
<!-- Node1&#45;&gt;Node2 -->
<g id="edge1_Node000001_Node000002" class="edge">
<title>Node1&#45;&gt;Node2</title>
<g id="a_edge1_Node000001_Node000002"><a xlink:title=" ">
<path fill="none" stroke="#63b8ff" d="M110.86,-40.03C124.76,-41.98 139.84,-44.1 154.24,-46.12"/>
<polygon fill="#63b8ff" stroke="#63b8ff" points="153.71,-49.58 164.1,-47.5 154.68,-42.65 153.71,-49.58"/>
</a>
</g>
</g>
<!-- Node3 -->
<g id="Node000003" class="node">
<title>Node3</title>
<g id="a_Node000003"><a xlink:href="test__debug__cpp23_8cpp.html#a853b304e67e6c661d4b0bc99047c0064" target="_top" xlink:title=" ">
<polygon fill="white" stroke="#666666" points="296,-20.75 146.5,-20.75 146.5,0 296,0 296,-20.75"/>
<text xml:space="preserve" text-anchor="middle" x="221.25" y="-7.25" font-family="Helvetica,sans-Serif" font-size="10.00">test_backtrace_middle_cpp</text>
</a>
</g>
</g>
<!-- Node1&#45;&gt;Node3 -->
<g id="edge2_Node000001_Node000003" class="edge">
<title>Node1&#45;&gt;Node3</title>
<g id="a_edge2_Node000001_Node000003"><a xlink:title=" ">
<path fill="none" stroke="#63b8ff" d="M110.86,-25.05C118.52,-24.02 126.55,-22.94 134.62,-21.86"/>
<polygon fill="#63b8ff" stroke="#63b8ff" points="135.08,-25.33 144.53,-20.53 134.15,-18.39 135.08,-25.33"/>
</a>
</g>
</g>
<!-- Node4 -->
<g id="Node000004" class="node">
<title>Node4</title>
<g id="a_Node000004"><a xlink:href="test__debug__cpp23_8cpp.html#aee1af3519818ccd0f1eb48d707d3c1de" target="_top" xlink:title=" ">
<polygon fill="white" stroke="#666666" points="472.5,-20.75 332,-20.75 332,0 472.5,0 472.5,-20.75"/>
<text xml:space="preserve" text-anchor="middle" x="402.25" y="-7.25" font-family="Helvetica,sans-Serif" font-size="10.00">test_backtrace_inner_cpp</text>
</a>
</g>
</g>
<!-- Node3&#45;&gt;Node4 -->
<g id="edge3_Node000003_Node000004" class="edge">
<title>Node3&#45;&gt;Node4</title>
<g id="a_edge3_Node000003_Node000004"><a xlink:title=" ">
<path fill="none" stroke="#63b8ff" d="M296.35,-10.38C304.17,-10.38 312.15,-10.38 320.04,-10.38"/>
<polygon fill="#63b8ff" stroke="#63b8ff" points="320,-13.88 330,-10.38 320,-6.88 320,-13.88"/>
</a>
</g>
</g>
</g>
</svg>
