<?xml version="1.0" encoding="UTF-8" standalone="no"?>
<!DOCTYPE svg PUBLIC "-//W3C//DTD SVG 1.1//EN"
 "http://www.w3.org/Graphics/SVG/1.1/DTD/svg11.dtd">
<!-- Generated by graphviz version 14.0.5 (20251129.0259)
 -->
<!-- Title: tests/test_debug_ndebug_c23.c Pages: 1 -->
<svg width="428pt" height="155pt"
 viewBox="0.00 0.00 428.00 155.00" xmlns="http://www.w3.org/2000/svg" xmlns:xlink="http://www.w3.org/1999/xlink">
<g id="graph0" class="graph" transform="scale(1 1) rotate(0) translate(4 151)">
<title>tests/test_debug_ndebug_c23.c</title>
<!-- Node1 -->
<g id="Node000001" class="node">
<title>Node1</title>
<g id="a_Node000001"><a xlink:title=" ">
<polygon fill="#999999" stroke="#666666" points="234.62,-147 96.38,-147 96.38,-113.5 234.62,-113.5 234.62,-147"/>
<text xml:space="preserve" text-anchor="start" x="104.38" y="-133.5" font-family="Helvetica,sans-Serif" font-size="10.00">tests/test_debug_ndebug</text>
<text xml:space="preserve" text-anchor="middle" x="165.5" y="-120.75" font-family="Helvetica,sans-Serif" font-size="10.00">_c23.c</text>
</a>
</g>
</g>
<!-- Node2 -->
<g id="Node000002" class="node">
<title>Node2</title>
<g id="a_Node000002"><a xlink:href="debug_8h.html" target="_top" xlink:title=" ">
<polygon fill="white" stroke="#666666" points="197.5,-77.5 133.5,-77.5 133.5,-56.75 197.5,-56.75 197.5,-77.5"/>
<text xml:space="preserve" text-anchor="middle" x="165.5" y="-64" font-family="Helvetica,sans-Serif" font-size="10.00">../debug.h</text>
</a>
</g>
</g>
<!-- Node1&#45;&gt;Node2 -->
<g id="edge1_Node000001_Node000002" class="edge">
<title>Node1&#45;&gt;Node2</title>
<g id="a_edge1_Node000001_Node000002"><a xlink:title=" ">
<path fill="none" stroke="#63b8ff" d="M165.5,-113.19C165.5,-105.85 165.5,-97.07 165.5,-89.21"/>
<polygon fill="#63b8ff" stroke="#63b8ff" points="169,-89.48 165.5,-79.48 162,-89.48 169,-89.48"/>
</a>
</g>
</g>
<!-- Node3 -->
<g id="Node000003" class="node">
<title>Node3</title>
<g id="a_Node000003"><a xlink:title=" ">
<polygon fill="#e0e0e0" stroke="#999999" points="49,-20.75 0,-20.75 0,0 49,0 49,-20.75"/>
<text xml:space="preserve" text-anchor="middle" x="24.5" y="-7.25" font-family="Helvetica,sans-Serif" font-size="10.00">stdio.h</text>
</a>
</g>
</g>
<!-- Node1&#45;&gt;Node3 -->
<g id="edge8_Node000001_Node000003" class="edge">
<title>Node1&#45;&gt;Node3</title>
<g id="a_edge8_Node000001_Node000003"><a xlink:title=" ">
<path fill="none" stroke="#63b8ff" d="M146.19,-113.11C119.61,-90.88 71.96,-51.05 44.84,-28.38"/>
<polygon fill="#63b8ff" stroke="#63b8ff" points="47.25,-25.84 37.34,-22.11 42.76,-31.21 47.25,-25.84"/>
</a>
</g>
</g>
<!-- Node5 -->
<g id="Node000005" class="node">
<title>Node5</title>
<g id="a_Node000005"><a xlink:title=" ">
<polygon fill="#e0e0e0" stroke="#999999" points="119.5,-20.75 67.5,-20.75 67.5,0 119.5,0 119.5,-20.75"/>
<text xml:space="preserve" text-anchor="middle" x="93.5" y="-7.25" font-family="Helvetica,sans-Serif" font-size="10.00">stdlib.h</text>
</a>
</g>
</g>
<!-- Node1&#45;&gt;Node5 -->
<g id="edge9_Node000001_Node000005" class="edge">
<title>Node1&#45;&gt;Node5</title>
<g id="a_edge9_Node000001_Node000005"><a xlink:title=" ">
<path fill="none" stroke="#63b8ff" d="M151.18,-113.19C142.79,-103.32 132.34,-90.17 124.5,-77.5 115.42,-62.82 107.23,-45.06 101.55,-31.64"/>
<polygon fill="#63b8ff" stroke="#63b8ff" points="104.86,-30.48 97.82,-22.55 98.38,-33.13 104.86,-30.48"/>
</a>
</g>
</g>
<!-- Node6 -->
<g id="Node000006" class="node">
<title>Node6</title>
<g id="a_Node000006"><a xlink:title=" ">
<polygon fill="#e0e0e0" stroke="#999999" points="419.88,-20.75 367.12,-20.75 367.12,0 419.88,0 419.88,-20.75"/>
<text xml:space="preserve" text-anchor="middle" x="393.5" y="-7.25" font-family="Helvetica,sans-Serif" font-size="10.00">string.h</text>
</a>
</g>
</g>
<!-- Node1&#45;&gt;Node6 -->
<g id="edge10_Node000001_Node000006" class="edge">
<title>Node1&#45;&gt;Node6</title>
<g id="a_edge10_Node000001_Node000006"><a xlink:title=" ">
<path fill="none" stroke="#63b8ff" d="M179.26,-113.17C194.08,-96.8 219.1,-71.76 245.5,-56.75 255.27,-51.2 315.46,-33.53 356.01,-21.95"/>
<polygon fill="#63b8ff" stroke="#63b8ff" points="356.75,-25.38 365.41,-19.27 354.84,-18.64 356.75,-25.38"/>
</a>
</g>
</g>
<!-- Node9 -->
<g id="Node000009" class="node">
<title>Node9</title>
<g id="a_Node000009"><a xlink:title=" ">
<polygon fill="#e0e0e0" stroke="#999999" points="315,-77.5 254,-77.5 254,-56.75 315,-56.75 315,-77.5"/>
<text xml:space="preserve" text-anchor="middle" x="284.5" y="-64" font-family="Helvetica,sans-Serif" font-size="10.00">stdbool.h</text>
</a>
</g>
</g>
<!-- Node1&#45;&gt;Node9 -->
<g id="edge11_Node000001_Node000009" class="edge">
<title>Node1&#45;&gt;Node9</title>
<g id="a_edge11_Node000001_Node000009"><a xlink:title=" ">
<path fill="none" stroke="#63b8ff" d="M197.08,-113.03C215.27,-103.69 237.96,-92.03 255.66,-82.94"/>
<polygon fill="#63b8ff" stroke="#63b8ff" points="256.8,-86.29 264.09,-78.61 253.6,-80.06 256.8,-86.29"/>
</a>
</g>
</g>
<!-- Node2&#45;&gt;Node3 -->
<g id="edge2_Node000002_Node000003" class="edge">
<title>Node2&#45;&gt;Node3</title>
<g id="a_edge2_Node000002_Node000003"><a xlink:title=" ">
<path fill="none" stroke="#63b8ff" d="M140.29,-56.34C117.94,-47.66 85.04,-34.88 60.02,-25.17"/>
<polygon fill="#63b8ff" stroke="#63b8ff" points="61.49,-21.98 50.9,-21.63 58.96,-28.51 61.49,-21.98"/>
</a>
</g>
</g>
<!-- Node4 -->
<g id="Node000004" class="node">
<title>Node4</title>
<g id="a_Node000004"><a xlink:title=" ">
<polygon fill="#e0e0e0" stroke="#999999" points="193,-20.75 138,-20.75 138,0 193,0 193,-20.75"/>
<text xml:space="preserve" text-anchor="middle" x="165.5" y="-7.25" font-family="Helvetica,sans-Serif" font-size="10.00">assert.h</text>
</a>
</g>
</g>
<!-- Node2&#45;&gt;Node4 -->
<g id="edge3_Node000002_Node000004" class="edge">
<title>Node2&#45;&gt;Node4</title>
<g id="a_edge3_Node000002_Node000004"><a xlink:title=" ">
<path fill="none" stroke="#63b8ff" d="M165.5,-56.34C165.5,-49.72 165.5,-40.72 165.5,-32.52"/>
<polygon fill="#63b8ff" stroke="#63b8ff" points="169,-32.59 165.5,-22.59 162,-32.59 169,-32.59"/>
</a>
</g>
</g>
<!-- Node2&#45;&gt;Node5 -->
<g id="edge4_Node000002_Node000005" class="edge">
<title>Node2&#45;&gt;Node5</title>
<g id="a_edge4_Node000002_Node000005"><a xlink:title=" ">
<path fill="none" stroke="#63b8ff" d="M152.63,-56.34C142.29,-48.47 127.53,-37.25 115.35,-27.99"/>
<polygon fill="#63b8ff" stroke="#63b8ff" points="117.54,-25.26 107.47,-21.99 113.31,-30.83 117.54,-25.26"/>
</a>
</g>
</g>
<!-- Node2&#45;&gt;Node6 -->
<g id="edge5_Node000002_Node000006" class="edge">
<title>Node2&#45;&gt;Node6</title>
<g id="a_edge5_Node000002_Node000006"><a xlink:title=" ">
<path fill="none" stroke="#63b8ff" d="M197.83,-58.72C233.87,-50.42 294.16,-36.37 355.69,-21.16"/>
<polygon fill="#63b8ff" stroke="#63b8ff" points="356.45,-24.57 365.31,-18.77 354.76,-17.78 356.45,-24.57"/>
</a>
</g>
</g>
<!-- Node7 -->
<g id="Node000007" class="node">
<title>Node7</title>
<g id="a_Node000007"><a xlink:title=" ">
<polygon fill="#e0e0e0" stroke="#999999" points="263.88,-20.75 211.12,-20.75 211.12,0 263.88,0 263.88,-20.75"/>
<text xml:space="preserve" text-anchor="middle" x="237.5" y="-7.25" font-family="Helvetica,sans-Serif" font-size="10.00">stdint.h</text>
</a>
</g>
</g>
<!-- Node2&#45;&gt;Node7 -->
<g id="edge6_Node000002_Node000007" class="edge">
<title>Node2&#45;&gt;Node7</title>
<g id="a_edge6_Node000002_Node000007"><a xlink:title=" ">
<path fill="none" stroke="#63b8ff" d="M178.37,-56.34C188.71,-48.47 203.47,-37.25 215.65,-27.99"/>
<polygon fill="#63b8ff" stroke="#63b8ff" points="217.69,-30.83 223.53,-21.99 213.46,-25.26 217.69,-30.83"/>
</a>
</g>
</g>
<!-- Node8 -->
<g id="Node000008" class="node">
<title>Node8</title>
<g id="a_Node000008"><a xlink:title=" ">
<polygon fill="#e0e0e0" stroke="#999999" points="348.62,-20.75 282.38,-20.75 282.38,0 348.62,0 348.62,-20.75"/>
<text xml:space="preserve" text-anchor="middle" x="315.5" y="-7.25" font-family="Helvetica,sans-Serif" font-size="10.00">execinfo.h</text>
</a>
</g>
</g>
<!-- Node2&#45;&gt;Node8 -->
<g id="edge7_Node000002_Node000008" class="edge">
<title>Node2&#45;&gt;Node8</title>
<g id="a_edge7_Node000002_Node000008"><a xlink:title=" ">
<path fill="none" stroke="#63b8ff" d="M192.32,-56.34C216.24,-47.61 251.5,-34.73 278.18,-25"/>
<polygon fill="#63b8ff" stroke="#63b8ff" points="279.05,-28.41 287.24,-21.69 276.65,-21.83 279.05,-28.41"/>
</a>
</g>
</g>
</g>
</svg>
