<?xml version="1.0" encoding="UTF-8" standalone="no"?>
<!DOCTYPE svg PUBLIC "-//W3C//DTD SVG 1.1//EN"
 "http://www.w3.org/Graphics/SVG/1.1/DTD/svg11.dtd">
<!-- Generated by graphviz version 14.0.5 (20251129.0259)
 -->
<!-- Title: tests/test_debug_c23.c Pages: 1 -->
<svg width="428pt" height="142pt"
 viewBox="0.00 0.00 428.00 142.00" xmlns="http://www.w3.org/2000/svg" xmlns:xlink="http://www.w3.org/1999/xlink">
<g id="graph0" class="graph" transform="scale(1 1) rotate(0) translate(4 138.25)">
<title>tests/test_debug_c23.c</title>
<!-- Node1 -->
<g id="Node000001" class="node">
<title>Node1</title>
<g id="a_Node000001"><a xlink:title=" ">
<polygon fill="#999999" stroke="#666666" points="298.38,-134.25 170.62,-134.25 170.62,-113.5 298.38,-113.5 298.38,-134.25"/>
<text xml:space="preserve" text-anchor="middle" x="234.5" y="-120.75" font-family="Helvetica,sans-Serif" font-size="10.00">tests/test_debug_c23.c</text>
</a>
</g>
</g>
<!-- Node2 -->
<g id="Node000002" class="node">
<title>Node2</title>
<g id="a_Node000002"><a xlink:href="debug_8h.html" target="_top" xlink:title=" ">
<polygon fill="white" stroke="#666666" points="236.5,-77.5 172.5,-77.5 172.5,-56.75 236.5,-56.75 236.5,-77.5"/>
<text xml:space="preserve" text-anchor="middle" x="204.5" y="-64" font-family="Helvetica,sans-Serif" font-size="10.00">../debug.h</text>
</a>
</g>
</g>
<!-- Node1&#45;&gt;Node2 -->
<g id="edge1_Node000001_Node000002" class="edge">
<title>Node1&#45;&gt;Node2</title>
<g id="a_edge1_Node000001_Node000002"><a xlink:title=" ">
<path fill="none" stroke="#63b8ff" d="M229.14,-113.09C225.3,-106.08 220,-96.41 215.3,-87.83"/>
<polygon fill="#63b8ff" stroke="#63b8ff" points="218.42,-86.24 210.54,-79.16 212.28,-89.61 218.42,-86.24"/>
</a>
</g>
</g>
<!-- Node3 -->
<g id="Node000003" class="node">
<title>Node3</title>
<g id="a_Node000003"><a xlink:title=" ">
<polygon fill="#e0e0e0" stroke="#999999" points="49,-20.75 0,-20.75 0,0 49,0 49,-20.75"/>
<text xml:space="preserve" text-anchor="middle" x="24.5" y="-7.25" font-family="Helvetica,sans-Serif" font-size="10.00">stdio.h</text>
</a>
</g>
</g>
<!-- Node1&#45;&gt;Node3 -->
<g id="edge8_Node000001_Node000003" class="edge">
<title>Node1&#45;&gt;Node3</title>
<g id="a_edge8_Node000001_Node000003"><a xlink:title=" ">
<path fill="none" stroke="#63b8ff" d="M211.36,-113.11C191.07,-104.35 160.94,-90.86 135.5,-77.5 105.15,-61.57 71.49,-41.1 49.28,-27.18"/>
<polygon fill="#63b8ff" stroke="#63b8ff" points="51.25,-24.29 40.93,-21.91 47.52,-30.21 51.25,-24.29"/>
</a>
</g>
</g>
<!-- Node5 -->
<g id="Node000005" class="node">
<title>Node5</title>
<g id="a_Node000005"><a xlink:title=" ">
<polygon fill="#e0e0e0" stroke="#999999" points="119.5,-20.75 67.5,-20.75 67.5,0 119.5,0 119.5,-20.75"/>
<text xml:space="preserve" text-anchor="middle" x="93.5" y="-7.25" font-family="Helvetica,sans-Serif" font-size="10.00">stdlib.h</text>
</a>
</g>
</g>
<!-- Node1&#45;&gt;Node5 -->
<g id="edge9_Node000001_Node000005" class="edge">
<title>Node1&#45;&gt;Node5</title>
<g id="a_edge9_Node000001_Node000005"><a xlink:title=" ">
<path fill="none" stroke="#63b8ff" d="M217.25,-113.1C202.49,-104.44 180.91,-91.09 163.5,-77.5 144.26,-62.48 124.19,-43.08 110.5,-29.19"/>
<polygon fill="#63b8ff" stroke="#63b8ff" points="113.04,-26.77 103.56,-22.04 108.02,-31.65 113.04,-26.77"/>
</a>
</g>
</g>
<!-- Node6 -->
<g id="Node000006" class="node">
<title>Node6</title>
<g id="a_Node000006"><a xlink:title=" ">
<polygon fill="#e0e0e0" stroke="#999999" points="348.88,-20.75 296.12,-20.75 296.12,0 348.88,0 348.88,-20.75"/>
<text xml:space="preserve" text-anchor="middle" x="322.5" y="-7.25" font-family="Helvetica,sans-Serif" font-size="10.00">string.h</text>
</a>
</g>
</g>
<!-- Node1&#45;&gt;Node6 -->
<g id="edge10_Node000001_Node000006" class="edge">
<title>Node1&#45;&gt;Node6</title>
<g id="a_edge10_Node000001_Node000006"><a xlink:title=" ">
<path fill="none" stroke="#63b8ff" d="M242,-113.37C256.54,-94.95 288.79,-54.09 307.76,-30.05"/>
<polygon fill="#63b8ff" stroke="#63b8ff" points="310.38,-32.38 313.83,-22.36 304.88,-28.04 310.38,-32.38"/>
</a>
</g>
</g>
<!-- Node7 -->
<g id="Node000007" class="node">
<title>Node7</title>
<g id="a_Node000007"><a xlink:title=" ">
<polygon fill="#e0e0e0" stroke="#999999" points="419.88,-20.75 367.12,-20.75 367.12,0 419.88,0 419.88,-20.75"/>
<text xml:space="preserve" text-anchor="middle" x="393.5" y="-7.25" font-family="Helvetica,sans-Serif" font-size="10.00">stdint.h</text>
</a>
</g>
</g>
<!-- Node1&#45;&gt;Node7 -->
<g id="edge12_Node000001_Node000007" class="edge">
<title>Node1&#45;&gt;Node7</title>
<g id="a_edge12_Node000001_Node000007"><a xlink:title=" ">
<path fill="none" stroke="#63b8ff" d="M246.81,-113.16C263.63,-99.99 294.87,-75.92 322.5,-56.75 337.25,-46.52 354.17,-35.67 367.8,-27.14"/>
<polygon fill="#63b8ff" stroke="#63b8ff" points="369.55,-30.18 376.2,-21.93 365.86,-24.23 369.55,-30.18"/>
</a>
</g>
</g>
<!-- Node9 -->
<g id="Node000009" class="node">
<title>Node9</title>
<g id="a_Node000009"><a xlink:title=" ">
<polygon fill="#e0e0e0" stroke="#999999" points="392,-77.5 331,-77.5 331,-56.75 392,-56.75 392,-77.5"/>
<text xml:space="preserve" text-anchor="middle" x="361.5" y="-64" font-family="Helvetica,sans-Serif" font-size="10.00">stdbool.h</text>
</a>
</g>
</g>
<!-- Node1&#45;&gt;Node9 -->
<g id="edge11_Node000001_Node000009" class="edge">
<title>Node1&#45;&gt;Node9</title>
<g id="a_edge11_Node000001_Node000009"><a xlink:title=" ">
<path fill="none" stroke="#63b8ff" d="M257.21,-113.09C277.07,-104.52 306.17,-91.98 328.59,-82.31"/>
<polygon fill="#63b8ff" stroke="#63b8ff" points="329.8,-85.6 337.6,-78.43 327.03,-79.17 329.8,-85.6"/>
</a>
</g>
</g>
<!-- Node2&#45;&gt;Node3 -->
<g id="edge2_Node000002_Node000003" class="edge">
<title>Node2&#45;&gt;Node3</title>
<g id="a_edge2_Node000002_Node000003"><a xlink:title=" ">
<path fill="none" stroke="#63b8ff" d="M172.32,-56.34C140.84,-46.76 93,-32.21 60.32,-22.27"/>
<polygon fill="#63b8ff" stroke="#63b8ff" points="61.49,-18.97 50.9,-19.4 59.45,-25.66 61.49,-18.97"/>
</a>
</g>
</g>
<!-- Node4 -->
<g id="Node000004" class="node">
<title>Node4</title>
<g id="a_Node000004"><a xlink:title=" ">
<polygon fill="#e0e0e0" stroke="#999999" points="193,-20.75 138,-20.75 138,0 193,0 193,-20.75"/>
<text xml:space="preserve" text-anchor="middle" x="165.5" y="-7.25" font-family="Helvetica,sans-Serif" font-size="10.00">assert.h</text>
</a>
</g>
</g>
<!-- Node2&#45;&gt;Node4 -->
<g id="edge3_Node000002_Node000004" class="edge">
<title>Node2&#45;&gt;Node4</title>
<g id="a_edge3_Node000002_Node000004"><a xlink:title=" ">
<path fill="none" stroke="#63b8ff" d="M197.53,-56.34C192.37,-49.1 185.18,-39.01 178.93,-30.22"/>
<polygon fill="#63b8ff" stroke="#63b8ff" points="181.94,-28.43 173.29,-22.31 176.24,-32.49 181.94,-28.43"/>
</a>
</g>
</g>
<!-- Node2&#45;&gt;Node5 -->
<g id="edge4_Node000002_Node000005" class="edge">
<title>Node2&#45;&gt;Node5</title>
<g id="a_edge4_Node000002_Node000005"><a xlink:title=" ">
<path fill="none" stroke="#63b8ff" d="M184.66,-56.34C167.61,-47.93 142.78,-35.68 123.34,-26.09"/>
<polygon fill="#63b8ff" stroke="#63b8ff" points="125.05,-23.03 114.53,-21.75 121.95,-29.31 125.05,-23.03"/>
</a>
</g>
</g>
<!-- Node2&#45;&gt;Node6 -->
<g id="edge5_Node000002_Node000006" class="edge">
<title>Node2&#45;&gt;Node6</title>
<g id="a_edge5_Node000002_Node000006"><a xlink:title=" ">
<path fill="none" stroke="#63b8ff" d="M225.6,-56.34C243.89,-47.85 270.6,-35.45 291.36,-25.83"/>
<polygon fill="#63b8ff" stroke="#63b8ff" points="292.62,-29.1 300.21,-21.72 289.67,-22.75 292.62,-29.1"/>
</a>
</g>
</g>
<!-- Node2&#45;&gt;Node7 -->
<g id="edge6_Node000002_Node000007" class="edge">
<title>Node2&#45;&gt;Node7</title>
<g id="a_edge6_Node000002_Node000007"><a xlink:title=" ">
<path fill="none" stroke="#63b8ff" d="M236.99,-56.71C270.13,-47.11 321.49,-32.23 356.26,-22.16"/>
<polygon fill="#63b8ff" stroke="#63b8ff" points="356.83,-25.64 365.46,-19.5 354.89,-18.92 356.83,-25.64"/>
</a>
</g>
</g>
<!-- Node8 -->
<g id="Node000008" class="node">
<title>Node8</title>
<g id="a_Node000008"><a xlink:title=" ">
<polygon fill="#e0e0e0" stroke="#999999" points="277.62,-20.75 211.38,-20.75 211.38,0 277.62,0 277.62,-20.75"/>
<text xml:space="preserve" text-anchor="middle" x="244.5" y="-7.25" font-family="Helvetica,sans-Serif" font-size="10.00">execinfo.h</text>
</a>
</g>
</g>
<!-- Node2&#45;&gt;Node8 -->
<g id="edge7_Node000002_Node000008" class="edge">
<title>Node2&#45;&gt;Node8</title>
<g id="a_edge7_Node000002_Node000008"><a xlink:title=" ">
<path fill="none" stroke="#63b8ff" d="M211.65,-56.34C216.94,-49.1 224.31,-39.01 230.73,-30.22"/>
<polygon fill="#63b8ff" stroke="#63b8ff" points="233.44,-32.44 236.52,-22.3 227.79,-28.31 233.44,-32.44"/>
</a>
</g>
</g>
</g>
</svg>
