<?xml version="1.0" encoding="UTF-8" standalone="no"?>
<!DOCTYPE svg PUBLIC "-//W3C//DTD SVG 1.1//EN"
 "http://www.w3.org/Graphics/SVG/1.1/DTD/svg11.dtd">
<!-- Generated by graphviz version 14.0.5 (20251129.0259)
 -->
<!-- Title: test_backtrace Pages: 1 -->
<svg width="413pt" height="29pt"
 viewBox="0.00 0.00 413.00 29.00" xmlns="http://www.w3.org/2000/svg" xmlns:xlink="http://www.w3.org/1999/xlink">
<g id="graph0" class="graph" transform="scale(1 1) rotate(0) translate(4 24.75)">
<title>test_backtrace</title>
<!-- Node1 -->
<g id="Node000001" class="node">
<title>Node1</title>
<g id="a_Node000001"><a xlink:title=" ">
<polygon fill="#999999" stroke="#666666" points="88,-20.75 0,-20.75 0,0 88,0 88,-20.75"/>
<text xml:space="preserve" text-anchor="middle" x="44" y="-7.25" font-family="Helvetica,sans-Serif" font-size="10.00">test_backtrace</text>
</a>
</g>
</g>
<!-- Node2 -->
<g id="Node000002" class="node">
<title>Node2</title>
<g id="a_Node000002"><a xlink:href="test__debug__c23_8c.html#a1204b683620a0be822cf730bd0ba62bc" target="_top" xlink:title=" ">
<polygon fill="white" stroke="#666666" points="251,-20.75 124,-20.75 124,0 251,0 251,-20.75"/>
<text xml:space="preserve" text-anchor="middle" x="187.5" y="-7.25" font-family="Helvetica,sans-Serif" font-size="10.00">test_backtrace_middle</text>
</a>
</g>
</g>
<!-- Node1&#45;&gt;Node2 -->
<g id="edge1_Node000001_Node000002" class="edge">
<title>Node1&#45;&gt;Node2</title>
<g id="a_edge1_Node000001_Node000002"><a xlink:title=" ">
<path fill="none" stroke="#63b8ff" d="M88.22,-10.38C95.93,-10.38 104.16,-10.38 112.45,-10.38"/>
<polygon fill="#63b8ff" stroke="#63b8ff" points="112.23,-13.88 122.23,-10.38 112.23,-6.88 112.23,-13.88"/>
</a>
</g>
</g>
<!-- Node3 -->
<g id="Node000003" class="node">
<title>Node3</title>
<g id="a_Node000003"><a xlink:href="test__debug__c23_8c.html#a1ec8bd65f26977c6967fb15496f0d9b7" target="_top" xlink:title=" ">
<polygon fill="white" stroke="#666666" points="405,-20.75 287,-20.75 287,0 405,0 405,-20.75"/>
<text xml:space="preserve" text-anchor="middle" x="346" y="-7.25" font-family="Helvetica,sans-Serif" font-size="10.00">test_backtrace_inner</text>
</a>
</g>
</g>
<!-- Node2&#45;&gt;Node3 -->
<g id="edge2_Node000002_Node000003" class="edge">
<title>Node2&#45;&gt;Node3</title>
<g id="a_edge2_Node000002_Node000003"><a xlink:title=" ">
<path fill="none" stroke="#63b8ff" d="M251.25,-10.38C259.08,-10.38 267.12,-10.38 275.05,-10.38"/>
<polygon fill="#63b8ff" stroke="#63b8ff" points="275.03,-13.88 285.03,-10.38 275.03,-6.88 275.03,-13.88"/>
</a>
</g>
</g>
</g>
</svg>
