<?xml version="1.0" encoding="UTF-8" standalone="no"?>
<!DOCTYPE svg PUBLIC "-//W3C//DTD SVG 1.1//EN"
 "http://www.w3.org/Graphics/SVG/1.1/DTD/svg11.dtd">
<!-- Generated by graphviz version 14.0.5 (20251129.0259)
 -->
<!-- Title: main Pages: 1 -->
<svg width="559pt" height="575pt"
 viewBox="0.00 0.00 559.00 575.00" xmlns="http://www.w3.org/2000/svg" xmlns:xlink="http://www.w3.org/1999/xlink">
<g id="graph0" class="graph" transform="scale(1 1) rotate(0) translate(4 570.75)">
<title>main</title>
<!-- Node1 -->
<g id="Node000001" class="node">
<title>Node1</title>
<g id="a_Node000001"><a xlink:title=" ">
<polygon fill="#999999" stroke="#666666" points="40.75,-293.75 0,-293.75 0,-273 40.75,-273 40.75,-293.75"/>
<text xml:space="preserve" text-anchor="middle" x="20.38" y="-280.25" font-family="Helvetica,sans-Serif" font-size="10.00">main</text>
</a>
</g>
</g>
<!-- Node2 -->
<g id="Node000002" class="node">
<title>Node2</title>
<g id="a_Node000002"><a xlink:href="test__debug__c23_8c.html#a762d2c3daf66232299289484c0d942b5" target="_top" xlink:title=" ">
<polygon fill="white" stroke="#666666" points="219.5,-566.75 91,-566.75 91,-546 219.5,-546 219.5,-566.75"/>
<text xml:space="preserve" text-anchor="middle" x="155.25" y="-553.25" font-family="Helvetica,sans-Serif" font-size="10.00">test_abort_compilation</text>
</a>
</g>
</g>
<!-- Node1&#45;&gt;Node2 -->
<g id="edge1_Node000001_Node000002" class="edge">
<title>Node1&#45;&gt;Node2</title>
<g id="a_edge1_Node000001_Node000002"><a xlink:title=" ">
<path fill="none" stroke="#63b8ff" d="M22.24,-293.97C25.98,-337.31 42.2,-500.52 76.75,-536.38 78.14,-537.82 79.62,-539.16 81.18,-540.42"/>
<polygon fill="#63b8ff" stroke="#63b8ff" points="79.24,-543.33 89.54,-545.8 83.03,-537.45 79.24,-543.33"/>
</a>
</g>
</g>
<!-- Node3 -->
<g id="Node000003" class="node">
<title>Node3</title>
<g id="a_Node000003"><a xlink:href="test__debug__c23_8c.html#aee014ef70f7d824ea263859fc89adbc7" target="_top" xlink:title=" ">
<polygon fill="white" stroke="#666666" points="214.25,-527.75 96.25,-527.75 96.25,-507 214.25,-507 214.25,-527.75"/>
<text xml:space="preserve" text-anchor="middle" x="155.25" y="-514.25" font-family="Helvetica,sans-Serif" font-size="10.00">test_assertions_pass</text>
</a>
</g>
</g>
<!-- Node1&#45;&gt;Node3 -->
<g id="edge2_Node000001_Node000003" class="edge">
<title>Node1&#45;&gt;Node3</title>
<g id="a_edge2_Node000001_Node000003"><a xlink:title=" ">
<path fill="none" stroke="#63b8ff" d="M22.72,-294.17C27.81,-333.41 47.16,-467.81 76.75,-497.38 79.54,-500.16 82.66,-502.57 86,-504.66"/>
<polygon fill="#63b8ff" stroke="#63b8ff" points="84.1,-507.62 94.59,-509.05 87.28,-501.39 84.1,-507.62"/>
</a>
</g>
</g>
<!-- Node4 -->
<g id="Node000004" class="node">
<title>Node4</title>
<g id="a_Node000004"><a xlink:href="test__debug__c23_8c.html#a50262936d72a69c82c47f6db7d6f6012" target="_top" xlink:title=" ">
<polygon fill="white" stroke="#666666" points="199.25,-488.75 111.25,-488.75 111.25,-468 199.25,-468 199.25,-488.75"/>
<text xml:space="preserve" text-anchor="middle" x="155.25" y="-475.25" font-family="Helvetica,sans-Serif" font-size="10.00">test_backtrace</text>
</a>
</g>
</g>
<!-- Node1&#45;&gt;Node4 -->
<g id="edge3_Node000001_Node000004" class="edge">
<title>Node1&#45;&gt;Node4</title>
<g id="a_edge3_Node000001_Node000004"><a xlink:title=" ">
<path fill="none" stroke="#63b8ff" d="M21.39,-293.84C22.03,-324.07 28.17,-412.35 76.75,-458.38 83.27,-464.56 91.45,-468.89 100.03,-471.92"/>
<polygon fill="#63b8ff" stroke="#63b8ff" points="98.98,-475.26 109.55,-474.67 100.92,-468.53 98.98,-475.26"/>
</a>
</g>
</g>
<!-- Node7 -->
<g id="Node000007" class="node">
<title>Node7</title>
<g id="a_Node000007"><a xlink:href="test__debug__c23_8c.html#a841bd8b53d75a1d7b720daaa33deaf23" target="_top" xlink:title=" ">
<polygon fill="white" stroke="#666666" points="222.88,-449.75 87.62,-449.75 87.62,-429 222.88,-429 222.88,-449.75"/>
<text xml:space="preserve" text-anchor="middle" x="155.25" y="-436.25" font-family="Helvetica,sans-Serif" font-size="10.00">test_compile_definitions</text>
</a>
</g>
</g>
<!-- Node1&#45;&gt;Node7 -->
<g id="edge6_Node000001_Node000007" class="edge">
<title>Node1&#45;&gt;Node7</title>
<g id="a_edge6_Node000001_Node000007"><a xlink:title=" ">
<path fill="none" stroke="#63b8ff" d="M22.5,-294.07C25.8,-319.76 37.79,-385.32 76.75,-419.38 78.22,-420.66 79.77,-421.87 81.38,-423"/>
<polygon fill="#63b8ff" stroke="#63b8ff" points="79.44,-425.92 89.84,-427.92 82.96,-419.87 79.44,-425.92"/>
</a>
</g>
</g>
<!-- Node8 -->
<g id="Node000008" class="node">
<title>Node8</title>
<g id="a_Node000008"><a xlink:href="test__debug__c23_8c.html#a729bda48162c78822de3814a8f84116e" target="_top" xlink:title=" ">
<polygon fill="white" stroke="#666666" points="233.75,-410.75 76.75,-410.75 76.75,-390 233.75,-390 233.75,-410.75"/>
<text xml:space="preserve" text-anchor="middle" x="155.25" y="-397.25" font-family="Helvetica,sans-Serif" font-size="10.00">test_conditional_compilation</text>
</a>
</g>
</g>
<!-- Node1&#45;&gt;Node8 -->
<g id="edge7_Node000001_Node000008" class="edge">
<title>Node1&#45;&gt;Node8</title>
<g id="a_edge7_Node000001_Node000008"><a xlink:title=" ">
<path fill="none" stroke="#63b8ff" d="M24.38,-293.98C30.64,-314.06 47.01,-357.66 76.75,-380.38 78.72,-381.88 80.8,-383.28 82.95,-384.57"/>
<polygon fill="#63b8ff" stroke="#63b8ff" points="80.98,-387.49 91.48,-388.89 84.15,-381.25 80.98,-387.49"/>
</a>
</g>
</g>
<!-- Node9 -->
<g id="Node000009" class="node">
<title>Node9</title>
<g id="a_Node000009"><a xlink:href="test__debug__c23_8c.html#a9f94bc8cc6dd6b8b67078d3bb93cc228" target="_top" xlink:title=" ">
<polygon fill="white" stroke="#666666" points="222.88,-371.75 87.62,-371.75 87.62,-351 222.88,-351 222.88,-371.75"/>
<text xml:space="preserve" text-anchor="middle" x="155.25" y="-358.25" font-family="Helvetica,sans-Serif" font-size="10.00">test_format_edge_cases</text>
</a>
</g>
</g>
<!-- Node1&#45;&gt;Node9 -->
<g id="edge8_Node000001_Node000009" class="edge">
<title>Node1&#45;&gt;Node9</title>
<g id="a_edge8_Node000001_Node000009"><a xlink:title=" ">
<path fill="none" stroke="#63b8ff" d="M28.68,-294.1C38.2,-307.24 56.1,-329.26 76.75,-341.38 79.93,-343.24 83.28,-344.93 86.73,-346.47"/>
<polygon fill="#63b8ff" stroke="#63b8ff" points="85.33,-349.68 95.91,-350.07 87.88,-343.16 85.33,-349.68"/>
</a>
</g>
</g>
<!-- Node10 -->
<g id="Node000010" class="node">
<title>Node10</title>
<g id="a_Node000010"><a xlink:href="test__debug__c23_8c.html#a36e59b0be0bbad85d4b4b42f2188be83" target="_top" xlink:title=" ">
<polygon fill="white" stroke="#666666" points="214.62,-332.75 95.88,-332.75 95.88,-312 214.62,-312 214.62,-332.75"/>
<text xml:space="preserve" text-anchor="middle" x="155.25" y="-319.25" font-family="Helvetica,sans-Serif" font-size="10.00">test_function_tracing</text>
</a>
</g>
</g>
<!-- Node1&#45;&gt;Node10 -->
<g id="edge9_Node000001_Node000010" class="edge">
<title>Node1&#45;&gt;Node10</title>
<g id="a_edge9_Node000001_Node000010"><a xlink:title=" ">
<path fill="none" stroke="#63b8ff" d="M41.25,-290.61C51.74,-294.33 64.87,-298.81 76.75,-302.38 83.82,-304.5 91.29,-306.6 98.7,-308.6"/>
<polygon fill="#63b8ff" stroke="#63b8ff" points="97.8,-311.98 108.36,-311.16 99.59,-305.21 97.8,-311.98"/>
</a>
</g>
</g>
<!-- Node14 -->
<g id="Node000014" class="node">
<title>Node14</title>
<g id="a_Node000014"><a xlink:href="test__debug__c23_8c.html#a070645fd58a3b0365fbf8025670b6ffd" target="_top" xlink:title=" ">
<polygon fill="white" stroke="#666666" points="221.75,-293.75 88.75,-293.75 88.75,-273 221.75,-273 221.75,-293.75"/>
<text xml:space="preserve" text-anchor="middle" x="155.25" y="-280.25" font-family="Helvetica,sans-Serif" font-size="10.00">test_generic_formatting</text>
</a>
</g>
</g>
<!-- Node1&#45;&gt;Node14 -->
<g id="edge13_Node000001_Node000014" class="edge">
<title>Node1&#45;&gt;Node14</title>
<g id="a_edge13_Node000001_Node000014"><a xlink:title=" ">
<path fill="none" stroke="#63b8ff" d="M40.98,-283.38C50.91,-283.38 63.67,-283.38 77.03,-283.38"/>
<polygon fill="#63b8ff" stroke="#63b8ff" points="76.83,-286.88 86.83,-283.38 76.83,-279.88 76.83,-286.88"/>
</a>
</g>
</g>
<!-- Node15 -->
<g id="Node000015" class="node">
<title>Node15</title>
<g id="a_Node000015"><a xlink:href="test__debug__c23_8c.html#aae7227ee947675edb35201c4b6fe5861" target="_top" xlink:title=" ">
<polygon fill="white" stroke="#666666" points="201.88,-254.75 108.62,-254.75 108.62,-234 201.88,-234 201.88,-254.75"/>
<text xml:space="preserve" text-anchor="middle" x="155.25" y="-241.25" font-family="Helvetica,sans-Serif" font-size="10.00">test_integration</text>
</a>
</g>
</g>
<!-- Node1&#45;&gt;Node15 -->
<g id="edge14_Node000001_Node000015" class="edge">
<title>Node1&#45;&gt;Node15</title>
<g id="a_edge14_Node000001_Node000015"><a xlink:title=" ">
<path fill="none" stroke="#63b8ff" d="M41.25,-276.14C51.74,-272.42 64.87,-267.94 76.75,-264.38 83.82,-262.25 91.29,-260.15 98.7,-258.15"/>
<polygon fill="#63b8ff" stroke="#63b8ff" points="99.59,-261.54 108.36,-255.59 97.8,-254.77 99.59,-261.54"/>
</a>
</g>
</g>
<!-- Node18 -->
<g id="Node000018" class="node">
<title>Node18</title>
<g id="a_Node000018"><a xlink:href="test__debug__c23_8c.html#a399d22ae62256fd4eae26659481daa0e" target="_top" xlink:title=" ">
<polygon fill="white" stroke="#666666" points="200,-215.75 110.5,-215.75 110.5,-195 200,-195 200,-215.75"/>
<text xml:space="preserve" text-anchor="middle" x="155.25" y="-202.25" font-family="Helvetica,sans-Serif" font-size="10.00">test_log_levels</text>
</a>
</g>
</g>
<!-- Node1&#45;&gt;Node18 -->
<g id="edge17_Node000001_Node000018" class="edge">
<title>Node1&#45;&gt;Node18</title>
<g id="a_edge17_Node000001_Node000018"><a xlink:title=" ">
<path fill="none" stroke="#63b8ff" d="M28.68,-272.65C38.2,-259.51 56.1,-237.49 76.75,-225.38 83.75,-221.27 91.6,-217.99 99.54,-215.38"/>
<polygon fill="#63b8ff" stroke="#63b8ff" points="100.27,-218.81 108.89,-212.65 98.31,-212.09 100.27,-218.81"/>
</a>
</g>
</g>
<!-- Node19 -->
<g id="Node000019" class="node">
<title>Node19</title>
<g id="a_Node000019"><a xlink:href="test__debug__c23_8c.html#a6638f20a4f40a1d47bd800861efe5ca9" target="_top" xlink:title=" ">
<polygon fill="white" stroke="#666666" points="205.25,-176.75 105.25,-176.75 105.25,-156 205.25,-156 205.25,-176.75"/>
<text xml:space="preserve" text-anchor="middle" x="155.25" y="-163.25" font-family="Helvetica,sans-Serif" font-size="10.00">test_loop_tracing</text>
</a>
</g>
</g>
<!-- Node1&#45;&gt;Node19 -->
<g id="edge18_Node000001_Node000019" class="edge">
<title>Node1&#45;&gt;Node19</title>
<g id="a_edge18_Node000001_Node000019"><a xlink:title=" ">
<path fill="none" stroke="#63b8ff" d="M24.38,-272.77C30.64,-252.69 47.01,-209.09 76.75,-186.38 81.98,-182.38 87.94,-179.17 94.17,-176.61"/>
<polygon fill="#63b8ff" stroke="#63b8ff" points="95.12,-179.98 103.4,-173.36 92.8,-173.38 95.12,-179.98"/>
</a>
</g>
</g>
<!-- Node20 -->
<g id="Node000020" class="node">
<title>Node20</title>
<g id="a_Node000020"><a xlink:href="test__debug__c23_8c.html#a421d01ced77bf939f3b05b56b63f73e8" target="_top" xlink:title=" ">
<polygon fill="white" stroke="#666666" points="222.5,-137.75 88,-137.75 88,-117 222.5,-117 222.5,-137.75"/>
<text xml:space="preserve" text-anchor="middle" x="155.25" y="-124.25" font-family="Helvetica,sans-Serif" font-size="10.00">test_memory_allocation</text>
</a>
</g>
</g>
<!-- Node1&#45;&gt;Node20 -->
<g id="edge19_Node000001_Node000020" class="edge">
<title>Node1&#45;&gt;Node20</title>
<g id="a_edge19_Node000001_Node000020"><a xlink:title=" ">
<path fill="none" stroke="#63b8ff" d="M22.5,-272.68C25.8,-246.99 37.79,-181.43 76.75,-147.38 78.22,-146.09 79.77,-144.88 81.38,-143.75"/>
<polygon fill="#63b8ff" stroke="#63b8ff" points="82.96,-146.88 89.84,-138.83 79.44,-140.83 82.96,-146.88"/>
</a>
</g>
</g>
<!-- Node21 -->
<g id="Node000021" class="node">
<title>Node21</title>
<g id="a_Node000021"><a xlink:href="test__debug__c23_8c.html#abe9dd1824989d6d407f1d61f9b95146b" target="_top" xlink:title=" ">
<polygon fill="white" stroke="#666666" points="220.25,-98.75 90.25,-98.75 90.25,-78 220.25,-78 220.25,-98.75"/>
<text xml:space="preserve" text-anchor="middle" x="155.25" y="-85.25" font-family="Helvetica,sans-Serif" font-size="10.00">test_pointer_inspection</text>
</a>
</g>
</g>
<!-- Node1&#45;&gt;Node21 -->
<g id="edge20_Node000001_Node000021" class="edge">
<title>Node1&#45;&gt;Node21</title>
<g id="a_edge20_Node000001_Node000021"><a xlink:title=" ">
<path fill="none" stroke="#63b8ff" d="M21.39,-272.91C22.03,-242.68 28.17,-154.4 76.75,-108.38 77.98,-107.21 79.27,-106.11 80.61,-105.07"/>
<polygon fill="#63b8ff" stroke="#63b8ff" points="82.21,-108.2 88.8,-99.9 78.47,-102.28 82.21,-108.2"/>
</a>
</g>
</g>
<!-- Node22 -->
<g id="Node000022" class="node">
<title>Node22</title>
<g id="a_Node000022"><a xlink:href="test__debug__c23_8c.html#a236013fe89e8103349a3272b381fedaa" target="_top" xlink:title=" ">
<polygon fill="white" stroke="#666666" points="210.12,-59.75 100.38,-59.75 100.38,-39 210.12,-39 210.12,-59.75"/>
<text xml:space="preserve" text-anchor="middle" x="155.25" y="-46.25" font-family="Helvetica,sans-Serif" font-size="10.00">test_scope_helpers</text>
</a>
</g>
</g>
<!-- Node1&#45;&gt;Node22 -->
<g id="edge21_Node000001_Node000022" class="edge">
<title>Node1&#45;&gt;Node22</title>
<g id="a_edge21_Node000001_Node000022"><a xlink:title=" ">
<path fill="none" stroke="#63b8ff" d="M22.72,-272.58C27.81,-233.34 47.16,-98.94 76.75,-69.38 80.6,-65.53 85.09,-62.39 89.93,-59.83"/>
<polygon fill="#63b8ff" stroke="#63b8ff" points="91.09,-63.14 98.88,-55.96 88.31,-56.72 91.09,-63.14"/>
</a>
</g>
</g>
<!-- Node23 -->
<g id="Node000023" class="node">
<title>Node23</title>
<g id="a_Node000023"><a xlink:href="test__debug__c23_8c.html#a630493237da7c4b14a0ff35df769c1b0" target="_top" xlink:title=" ">
<polygon fill="white" stroke="#666666" points="203.75,-20.75 106.75,-20.75 106.75,0 203.75,0 203.75,-20.75"/>
<text xml:space="preserve" text-anchor="middle" x="155.25" y="-7.25" font-family="Helvetica,sans-Serif" font-size="10.00">test_soft_checks</text>
</a>
</g>
</g>
<!-- Node1&#45;&gt;Node23 -->
<g id="edge22_Node000001_Node000023" class="edge">
<title>Node1&#45;&gt;Node23</title>
<g id="a_edge22_Node000001_Node000023"><a xlink:title=" ">
<path fill="none" stroke="#63b8ff" d="M22.24,-272.78C25.98,-229.44 42.2,-66.23 76.75,-30.38 82.06,-24.86 88.68,-20.8 95.79,-17.81"/>
<polygon fill="#63b8ff" stroke="#63b8ff" points="96.7,-21.19 105.04,-14.65 94.44,-14.57 96.7,-21.19"/>
</a>
</g>
</g>
<!-- Node5 -->
<g id="Node000005" class="node">
<title>Node5</title>
<g id="a_Node000005"><a xlink:href="test__debug__c23_8c.html#a1204b683620a0be822cf730bd0ba62bc" target="_top" xlink:title=" ">
<polygon fill="white" stroke="#666666" points="396.75,-488.75 269.75,-488.75 269.75,-468 396.75,-468 396.75,-488.75"/>
<text xml:space="preserve" text-anchor="middle" x="333.25" y="-475.25" font-family="Helvetica,sans-Serif" font-size="10.00">test_backtrace_middle</text>
</a>
</g>
</g>
<!-- Node4&#45;&gt;Node5 -->
<g id="edge4_Node000004_Node000005" class="edge">
<title>Node4&#45;&gt;Node5</title>
<g id="a_edge4_Node000004_Node000005"><a xlink:title=" ">
<path fill="none" stroke="#63b8ff" d="M199.3,-478.38C217,-478.38 238,-478.38 258.03,-478.38"/>
<polygon fill="#63b8ff" stroke="#63b8ff" points="257.84,-481.88 267.84,-478.38 257.84,-474.88 257.84,-481.88"/>
</a>
</g>
</g>
<!-- Node6 -->
<g id="Node000006" class="node">
<title>Node6</title>
<g id="a_Node000006"><a xlink:href="test__debug__c23_8c.html#a1ec8bd65f26977c6967fb15496f0d9b7" target="_top" xlink:title=" ">
<polygon fill="white" stroke="#666666" points="550.75,-488.75 432.75,-488.75 432.75,-468 550.75,-468 550.75,-488.75"/>
<text xml:space="preserve" text-anchor="middle" x="491.75" y="-475.25" font-family="Helvetica,sans-Serif" font-size="10.00">test_backtrace_inner</text>
</a>
</g>
</g>
<!-- Node5&#45;&gt;Node6 -->
<g id="edge5_Node000005_Node000006" class="edge">
<title>Node5&#45;&gt;Node6</title>
<g id="a_edge5_Node000005_Node000006"><a xlink:title=" ">
<path fill="none" stroke="#63b8ff" d="M397,-478.38C404.83,-478.38 412.87,-478.38 420.8,-478.38"/>
<polygon fill="#63b8ff" stroke="#63b8ff" points="420.78,-481.88 430.78,-478.38 420.78,-474.88 420.78,-481.88"/>
</a>
</g>
</g>
<!-- Node11 -->
<g id="Node000011" class="node">
<title>Node11</title>
<g id="a_Node000011"><a xlink:href="test__debug__c23_8c.html#a71f8d45958443cd5674440c49ef24ddb" target="_top" xlink:title=" ">
<polygon fill="white" stroke="#666666" points="392.25,-410.12 274.25,-410.12 274.25,-376.62 392.25,-376.62 392.25,-410.12"/>
<text xml:space="preserve" text-anchor="start" x="282.25" y="-396.62" font-family="Helvetica,sans-Serif" font-size="10.00">test_function_double</text>
<text xml:space="preserve" text-anchor="middle" x="333.25" y="-383.88" font-family="Helvetica,sans-Serif" font-size="10.00">_return</text>
</a>
</g>
</g>
<!-- Node10&#45;&gt;Node11 -->
<g id="edge10_Node000010_Node000011" class="edge">
<title>Node10&#45;&gt;Node11</title>
<g id="a_edge10_Node000010_Node000011"><a xlink:title=" ">
<path fill="none" stroke="#63b8ff" d="M208.82,-333.24C217.33,-335.76 225.92,-338.79 233.75,-342.38 251.46,-350.49 252.66,-358.03 269.75,-367.38 272.23,-368.73 274.8,-370.06 277.41,-371.36"/>
<polygon fill="#63b8ff" stroke="#63b8ff" points="275.75,-374.45 286.28,-375.55 278.73,-368.12 275.75,-374.45"/>
</a>
</g>
</g>
<!-- Node12 -->
<g id="Node000012" class="node">
<title>Node12</title>
<g id="a_Node000012"><a xlink:href="test__debug__c23_8c.html#ab5dd89928bb6a9153783e528da4d7e73" target="_top" xlink:title=" ">
<polygon fill="white" stroke="#666666" points="389.62,-358.12 276.88,-358.12 276.88,-324.62 389.62,-324.62 389.62,-358.12"/>
<text xml:space="preserve" text-anchor="start" x="284.88" y="-344.62" font-family="Helvetica,sans-Serif" font-size="10.00">test_function_string</text>
<text xml:space="preserve" text-anchor="middle" x="333.25" y="-331.88" font-family="Helvetica,sans-Serif" font-size="10.00">_return</text>
</a>
</g>
</g>
<!-- Node10&#45;&gt;Node12 -->
<g id="edge11_Node000010_Node000012" class="edge">
<title>Node10&#45;&gt;Node12</title>
<g id="a_edge11_Node000010_Node000012"><a xlink:title=" ">
<path fill="none" stroke="#63b8ff" d="M214.86,-328.7C231.02,-330.45 248.69,-332.35 265.29,-334.15"/>
<polygon fill="#63b8ff" stroke="#63b8ff" points="264.76,-337.61 275.08,-335.2 265.51,-330.65 264.76,-337.61"/>
</a>
</g>
</g>
<!-- Node13 -->
<g id="Node000013" class="node">
<title>Node13</title>
<g id="a_Node000013"><a xlink:href="test__debug__c23_8c.html#ac99394a87dbc4834c706e76a021bf241" target="_top" xlink:title=" ">
<polygon fill="white" stroke="#666666" points="386.25,-306.12 280.25,-306.12 280.25,-272.62 386.25,-272.62 386.25,-306.12"/>
<text xml:space="preserve" text-anchor="start" x="288.25" y="-292.62" font-family="Helvetica,sans-Serif" font-size="10.00">test_function_with</text>
<text xml:space="preserve" text-anchor="middle" x="333.25" y="-279.88" font-family="Helvetica,sans-Serif" font-size="10.00">_tracing</text>
</a>
</g>
</g>
<!-- Node10&#45;&gt;Node13 -->
<g id="edge12_Node000010_Node000013" class="edge">
<title>Node10&#45;&gt;Node13</title>
<g id="a_edge12_Node000010_Node000013"><a xlink:title=" ">
<path fill="none" stroke="#63b8ff" d="M213.88,-311.57C231.4,-308.29 250.74,-304.66 268.63,-301.3"/>
<polygon fill="#63b8ff" stroke="#63b8ff" points="269.18,-304.76 278.36,-299.48 267.88,-297.88 269.18,-304.76"/>
</a>
</g>
</g>
<!-- Node16 -->
<g id="Node000016" class="node">
<title>Node16</title>
<g id="a_Node000016"><a xlink:href="test__debug__c23_8c.html#af3151e06f0c701ba63c3205ab565fcb4" target="_top" xlink:title=" ">
<polygon fill="white" stroke="#666666" points="385.12,-254.75 281.38,-254.75 281.38,-234 385.12,-234 385.12,-254.75"/>
<text xml:space="preserve" text-anchor="middle" x="333.25" y="-241.25" font-family="Helvetica,sans-Serif" font-size="10.00">create_test_struct</text>
</a>
</g>
</g>
<!-- Node15&#45;&gt;Node16 -->
<g id="edge15_Node000015_Node000016" class="edge">
<title>Node15&#45;&gt;Node16</title>
<g id="a_edge15_Node000015_Node000016"><a xlink:title=" ">
<path fill="none" stroke="#63b8ff" d="M202.03,-244.38C222.67,-244.38 247.38,-244.38 269.69,-244.38"/>
<polygon fill="#63b8ff" stroke="#63b8ff" points="269.6,-247.88 279.6,-244.38 269.6,-240.88 269.6,-247.88"/>
</a>
</g>
</g>
<!-- Node17 -->
<g id="Node000017" class="node">
<title>Node17</title>
<g id="a_Node000017"><a xlink:href="test__debug__c23_8c.html#a90cc493d0a2d314a6dab34b1291719b0" target="_top" xlink:title=" ">
<polygon fill="white" stroke="#666666" points="375.38,-215.75 291.12,-215.75 291.12,-195 375.38,-195 375.38,-215.75"/>
<text xml:space="preserve" text-anchor="middle" x="333.25" y="-202.25" font-family="Helvetica,sans-Serif" font-size="10.00">process_array</text>
</a>
</g>
</g>
<!-- Node15&#45;&gt;Node17 -->
<g id="edge16_Node000015_Node000017" class="edge">
<title>Node15&#45;&gt;Node17</title>
<g id="a_edge16_Node000015_Node000017"><a xlink:title=" ">
<path fill="none" stroke="#63b8ff" d="M202.03,-234.23C225.88,-228.95 255.15,-222.46 279.89,-216.98"/>
<polygon fill="#63b8ff" stroke="#63b8ff" points="280.42,-220.44 289.43,-214.86 278.91,-213.61 280.42,-220.44"/>
</a>
</g>
</g>
</g>
</svg>
